<?xml version="1.0" encoding="UTF-8"?>
<svg version="1.1" xmlns="http://www.w3.org/2000/svg" width="512" height="512">
<path d="M0 0 C11.63239051 4.84682938 16.43831666 26.21724651 20.97109985 36.9616394 C23.49604988 42.94661855 26.03235572 48.92677715 28.5703125 54.90625 C28.96193416 55.82938901 28.96193416 55.82938901 29.36146736 56.77117729 C33.37715942 66.23343444 37.44668018 75.67122729 41.5546875 85.09375 C41.81980951 85.70223345 42.08493153 86.3107169 42.35808754 86.93763924 C45.16849255 93.38749504 47.98633163 99.83402965 50.81225586 106.27709961 C51.73563243 108.39171275 52.65889694 110.50637484 53.58203125 112.62109375 C54.00181244 113.57290527 54.42159363 114.5247168 54.85409546 115.50537109 C55.43449081 116.83773804 55.43449081 116.83773804 56.02661133 118.19702148 C56.36138992 118.96014145 56.69616852 119.72326141 57.04109192 120.50950623 C58.23886061 123.62037318 59.1196356 126.78667684 60 130 C60.68281666 130.04865991 61.36563332 130.09731981 62.06914139 130.14745426 C78.99464909 131.36036881 95.89868694 132.73118044 112.796875 134.27734375 C113.94386116 134.38209078 115.09084732 134.48683781 116.27259064 134.59475899 C122.30457142 135.14628442 128.336235 135.70114692 134.36767578 136.25854492 C139.32445868 136.71596382 144.28180249 137.166425 149.23974609 137.61108398 C155.29538426 138.15420305 161.34988069 138.70867008 167.40372467 139.27142525 C169.69184867 139.48226285 171.9803385 139.6891703 174.26918793 139.89198112 C177.45108542 140.17479356 180.63129974 140.4722181 183.81152344 140.77319336 C185.21093925 140.89256256 185.21093925 140.89256256 186.6386261 141.01434326 C191.9890953 141.53884448 196.23806445 142.44837875 201 145 C203.73856604 148.9753378 204.6983356 152.21141301 204 157 C200.02206751 165.1366801 191.65296297 170.69296186 184.75 176.25 C179.67657078 180.3488722 174.93930819 184.73239988 170.19458008 189.19995117 C165.88172304 193.23901348 161.40188619 196.98925265 156.7890625 200.68359375 C152.36265837 204.35986497 148.19198888 208.30426372 143.984375 212.2265625 C139.36646239 216.53105514 134.59238393 220.64312405 129.7890625 224.73828125 C128.58834586 225.7627914 127.38783091 226.78753795 126.1875 227.8125 C125.28257812 228.5852124 125.28257812 228.5852124 124.359375 229.37353516 C119.62412131 233.43177966 114.98877483 237.57999723 110.42578125 241.83203125 C108.27997939 243.74977688 106.08090345 245.38443342 103.75 247.0625 C102.1807034 248.32355425 102.1807034 248.32355425 101 250 C100.80776048 251.96307922 100.80776048 251.96307922 101.19976807 254.07929993 C101.31691414 254.87934763 101.43406021 255.67939533 101.55475616 256.5036869 C102.28278478 260.58546686 103.12940131 264.62703874 104.05371094 268.66870117 C104.36375061 270.05143974 104.36375061 270.05143974 104.68005371 271.46211243 C105.36020822 274.49012554 106.0472389 277.51653302 106.734375 280.54296875 C107.21463221 282.67449158 107.6944627 284.8061106 108.17388916 286.93782043 C109.4368043 292.54776443 110.70558376 298.15636626 111.97558594 303.76470947 C113.25034957 309.39896782 114.51943088 315.0345053 115.7890625 320.66992188 C117.44794242 328.02955224 119.10744832 335.38903944 120.77264786 342.74724293 C121.20602751 344.66418683 121.63822729 346.5813979 122.06917953 348.49888897 C123.16134016 353.34840937 124.27946675 358.18983946 125.4395752 363.02359009 C125.67250401 364.0081207 125.90543282 364.99265131 126.14542007 366.00701618 C126.58546231 367.86379723 127.0331507 369.71879142 127.4902916 371.57143688 C130.68824355 385.16616262 130.68824355 385.16616262 127.25 390.9375 C124.67087198 393.30170068 122.56905214 394.8361507 119.03613281 395.20507812 C111.83334325 394.60400145 106.74763311 391.32795915 100.75 387.5 C98.53367751 386.12708778 96.31618061 384.75607005 94.09765625 383.38671875 C93.5236055 383.02958298 92.94955475 382.6724472 92.35810852 382.30448914 C86.32165163 378.55369466 80.19051523 374.97053457 74.04855347 371.39605713 C70.95655607 369.59581018 67.86869368 367.78851134 64.78125 365.98046875 C64.19008896 365.63431519 63.59892792 365.28816162 62.98985291 364.93151855 C57.27220346 361.57984662 51.58754504 358.17502179 45.91186523 354.75292969 C40.60040463 351.55311048 35.27498472 348.37760734 29.94140625 345.21484375 C28.87148689 344.58032288 28.87148689 344.58032288 27.779953 343.9329834 C24.20854086 341.81541181 20.63629908 339.69925117 17.06323242 337.58447266 C16.39688278 337.18933472 15.73053314 336.79419678 15.04399109 336.38708496 C13.74948456 335.6203183 12.45370648 334.85569366 11.15657043 334.09338379 C7.79985609 332.11193901 4.56341801 330.02579751 1.359375 327.80859375 C-1.74620585 325.63128186 -1.74620585 325.63128186 -4.33789062 326.67529297 C-7.28358372 328.14111567 -10.11742564 329.71702879 -12.953125 331.38671875 C-13.52138 331.72020828 -14.08963501 332.05369781 -14.67510986 332.39729309 C-16.53549917 333.49051658 -18.39279148 334.58888298 -20.25 335.6875 C-21.55913303 336.45852313 -22.8683794 337.22935384 -24.17773438 338 C-33.32614445 343.39108743 -42.43557444 348.84620192 -51.53100586 354.32617188 C-60.20488138 359.54441066 -68.93228843 364.66777743 -77.67230225 369.77407837 C-85.52147271 374.36027851 -93.34211483 378.98937239 -101.125 383.6875 C-104.08072911 385.46271535 -107.03945752 387.23282634 -110 389 C-110.89235352 389.53584717 -110.89235352 389.53584717 -111.80273438 390.08251953 C-113.31834422 390.98605617 -114.84614148 391.86906681 -116.375 392.75 C-117.53128906 393.42289062 -117.53128906 393.42289062 -118.7109375 394.109375 C-121.63544028 395.24723615 -123.8860212 395.27132523 -127 395 C-130.6578218 392.96006092 -132.66946174 391.49580738 -135 388 C-135.54309175 380.55233223 -134.12078627 373.90422268 -132.4296875 366.67480469 C-132.15658752 365.47207916 -131.88348755 364.26935364 -131.60211182 363.03018188 C-131.01058241 360.43133578 -130.41563835 357.83357528 -129.81451416 355.23696136 C-128.86358486 351.12892193 -127.92673614 347.01774814 -126.99169922 342.90606689 C-125.51154413 336.40472208 -124.02244521 329.90546577 -122.52928734 323.40709615 C-119.85352855 311.76191694 -117.18711314 300.11461036 -114.53292274 288.4644959 C-113.60176321 284.37933237 -112.66474747 280.29557006 -111.72299194 276.21283674 C-111.00131933 273.0787043 -110.28643466 269.94302174 -109.5703125 266.80761719 C-109.30849182 265.68024139 -109.04667114 264.5528656 -108.7769165 263.3913269 C-108.54132019 262.35410492 -108.30572388 261.31688293 -108.06298828 260.24822998 C-107.85650665 259.35010967 -107.65002502 258.45198936 -107.43728638 257.52665329 C-106.98446411 254.91023317 -106.75188173 252.6467196 -107 250 C-108.88889276 247.84984545 -110.66067828 246.09686275 -112.8125 244.25 C-113.40490479 243.72269287 -113.99730957 243.19538574 -114.60766602 242.65209961 C-119.00313275 238.7702128 -123.54696017 235.07878449 -128.12109375 231.41015625 C-132.1627344 228.02658463 -135.96975664 224.411689 -139.80615234 220.79931641 C-144.11880851 216.76055464 -148.59838771 213.01052798 -153.2109375 209.31640625 C-157.63734163 205.64013503 -161.80801112 201.69573628 -166.015625 197.7734375 C-170.63353761 193.46894486 -175.40761607 189.35687595 -180.2109375 185.26171875 C-181.41164216 184.23719457 -182.61215753 183.2124485 -183.8125 182.1875 C-184.41505615 181.6730835 -185.0176123 181.15866699 -185.63842773 180.62866211 C-190.39725449 176.55085419 -195.04115686 172.36555886 -199.65234375 168.12109375 C-201.57826709 166.38103323 -203.52996851 164.73633219 -205.5625 163.125 C-208.46387811 160.59559344 -209.88093289 158.70662857 -210.15234375 154.81640625 C-210.08144531 154.07261719 -210.01054687 153.32882813 -209.9375 152.5625 C-209.88464844 151.82128906 -209.83179688 151.08007812 -209.77734375 150.31640625 C-208.64090253 146.92992562 -206.67850753 145.32003423 -204 143 C-201.40626526 142.16567993 -201.40626526 142.16567993 -198.38891602 141.85009766 C-196.52373825 141.64238739 -196.52373825 141.64238739 -194.62088013 141.43048096 C-193.0806859 141.28592697 -191.5403815 141.14254451 -190 141 C-188.06094294 140.80540156 -186.12197438 140.60992014 -184.18307495 140.41375732 C-177.05115517 139.70534091 -169.91450341 139.05155532 -162.77734375 138.3984375 C-160.14129931 138.1549131 -157.50527715 137.91115742 -154.86927795 137.66714478 C-149.37181365 137.15880755 -143.87410116 136.65322935 -138.3762207 136.14941406 C-132.02958997 135.56779284 -125.68335096 134.98203943 -119.33730692 134.39405382 C-113.204705 133.8259144 -107.0718642 133.26040203 -100.93890572 132.69612503 C-98.33889736 132.45670901 -95.73894545 132.2166792 -93.13905144 131.97602463 C-89.51600031 131.64109442 -85.8926887 131.30914161 -82.26928711 130.97802734 C-81.19652023 130.87831131 -80.12375336 130.77859528 -79.01847839 130.67585754 C-78.03055298 130.58619217 -77.04262756 130.49652679 -76.02476501 130.40414429 C-74.74263327 130.28636407 -74.74263327 130.28636407 -73.43459988 130.16620445 C-70.94848556 129.99648323 -68.49108844 129.97121509 -66 130 C-65.82526657 129.44933365 -65.65053314 128.8986673 -65.47050476 128.33131409 C-63.71129891 122.90643261 -61.68510993 117.68497318 -59.39453125 112.46484375 C-59.04212875 111.65279984 -58.68972626 110.84075592 -58.3266449 110.00410461 C-57.56065387 108.23994599 -56.7929824 106.47651624 -56.02380371 104.71374512 C-53.90524058 99.85810859 -51.79928437 94.99700083 -49.69140625 90.13671875 C-49.24054657 89.09806671 -48.78968689 88.05941467 -48.32516479 86.98928833 C-44.74585465 78.73780538 -41.19333794 70.47500563 -37.65234375 62.20703125 C-37.38584833 61.58480619 -37.11935291 60.96258114 -36.84478188 60.32150078 C-34.46265507 54.75890647 -32.08227959 49.19556328 -29.70230103 43.63204956 C-29.20217499 42.46304108 -28.70204895 41.29403259 -28.18676758 40.08959961 C-27.45451714 38.37775734 -27.45451714 38.37775734 -26.70747375 36.6313324 C-25.30940528 33.3678213 -23.90588306 30.10669596 -22.50195312 26.84570312 C-20.94526651 23.22557685 -19.41525918 19.59704081 -17.91992188 15.95117188 C-17.60891541 15.20575134 -17.29790894 14.46033081 -16.97747803 13.69232178 C-16.18379727 11.78794553 -15.40322364 9.87812028 -14.62402344 7.96777344 C-11.30222928 1.89745928 -6.78508446 -0.65241197 0 0 Z " fill="#FFDB63" transform="translate(259,15)"/>
<path d="M0 0 C10.23831866 4.26596611 14.33961451 21.00188983 18.48901367 30.67480469 C19.12721355 32.15523127 19.77220461 33.63274671 20.42358398 35.10742188 C21.37918737 37.27126762 22.31469689 39.44283149 23.24609375 41.6171875 C23.53866562 42.27040985 23.83123749 42.9236322 24.13267517 43.59664917 C25.9025127 47.81102932 26.2797165 50.60236488 25 55 C23.44994363 57.56378145 21.86404447 59.9466792 20.125 62.375 C6.30560779 82.41955631 -5.74330442 103.77795142 -16.71630859 125.49023438 C-17.93360298 127.87018612 -19.18498628 130.22706317 -20.45703125 132.578125 C-40.36171025 169.38550537 -56.03280449 208.50283513 -69.36444092 248.11804199 C-69.96665007 249.90124731 -70.57708081 251.68166994 -71.18798828 253.46191406 C-81.28964294 282.96696336 -89.26780064 313.32614803 -95.5 343.875 C-95.66677246 344.68355438 -95.83354492 345.49210876 -96.00537109 346.32516479 C-97.56682091 353.93598026 -99.0188185 361.48729909 -99.84765625 369.21875 C-101.51356784 384.18112522 -101.51356784 384.18112522 -106.2578125 388.34375 C-112.30920434 392.63632115 -119.54954838 395.59130568 -127 395 C-130.84676353 393.04164766 -132.60966175 391.58550738 -135 388 C-135.54309175 380.55233223 -134.12078627 373.90422268 -132.4296875 366.67480469 C-132.15658752 365.47207916 -131.88348755 364.26935364 -131.60211182 363.03018188 C-131.01058241 360.43133578 -130.41563835 357.83357528 -129.81451416 355.23696136 C-128.86358486 351.12892193 -127.92673614 347.01774814 -126.99169922 342.90606689 C-125.51154413 336.40472208 -124.02244521 329.90546577 -122.52928734 323.40709615 C-119.85352855 311.76191694 -117.18711314 300.11461036 -114.53292274 288.4644959 C-113.60176321 284.37933237 -112.66474747 280.29557006 -111.72299194 276.21283674 C-111.00131933 273.0787043 -110.28643466 269.94302174 -109.5703125 266.80761719 C-109.30849182 265.68024139 -109.04667114 264.5528656 -108.7769165 263.3913269 C-108.54132019 262.35410492 -108.30572388 261.31688293 -108.06298828 260.24822998 C-107.85650665 259.35010967 -107.65002502 258.45198936 -107.43728638 257.52665329 C-106.98446411 254.91023317 -106.75188173 252.6467196 -107 250 C-108.88889276 247.84984545 -110.66067828 246.09686275 -112.8125 244.25 C-113.40490479 243.72269287 -113.99730957 243.19538574 -114.60766602 242.65209961 C-119.00313275 238.7702128 -123.54696017 235.07878449 -128.12109375 231.41015625 C-132.1627344 228.02658463 -135.96975664 224.411689 -139.80615234 220.79931641 C-144.11880851 216.76055464 -148.59838771 213.01052798 -153.2109375 209.31640625 C-157.63734163 205.64013503 -161.80801112 201.69573628 -166.015625 197.7734375 C-170.63353761 193.46894486 -175.40761607 189.35687595 -180.2109375 185.26171875 C-181.41164216 184.23719457 -182.61215753 183.2124485 -183.8125 182.1875 C-184.41505615 181.6730835 -185.0176123 181.15866699 -185.63842773 180.62866211 C-190.39725449 176.55085419 -195.04115686 172.36555886 -199.65234375 168.12109375 C-201.57826709 166.38103323 -203.52996851 164.73633219 -205.5625 163.125 C-208.46387811 160.59559344 -209.88093289 158.70662857 -210.15234375 154.81640625 C-210.08144531 154.07261719 -210.01054687 153.32882813 -209.9375 152.5625 C-209.88464844 151.82128906 -209.83179688 151.08007812 -209.77734375 150.31640625 C-208.64090253 146.92992562 -206.67850753 145.32003423 -204 143 C-201.40626526 142.16567993 -201.40626526 142.16567993 -198.38891602 141.85009766 C-196.52373825 141.64238739 -196.52373825 141.64238739 -194.62088013 141.43048096 C-193.0806859 141.28592697 -191.5403815 141.14254451 -190 141 C-188.06094294 140.80540156 -186.12197438 140.60992014 -184.18307495 140.41375732 C-177.05115517 139.70534091 -169.91450341 139.05155532 -162.77734375 138.3984375 C-160.14129931 138.1549131 -157.50527715 137.91115742 -154.86927795 137.66714478 C-149.37181365 137.15880755 -143.87410116 136.65322935 -138.3762207 136.14941406 C-132.02958997 135.56779284 -125.68335096 134.98203943 -119.33730692 134.39405382 C-113.204705 133.8259144 -107.0718642 133.26040203 -100.93890572 132.69612503 C-98.33889736 132.45670901 -95.73894545 132.2166792 -93.13905144 131.97602463 C-89.51600031 131.64109442 -85.8926887 131.30914161 -82.26928711 130.97802734 C-81.19652023 130.87831131 -80.12375336 130.77859528 -79.01847839 130.67585754 C-78.03055298 130.58619217 -77.04262756 130.49652679 -76.02476501 130.40414429 C-74.74263327 130.28636407 -74.74263327 130.28636407 -73.43459988 130.16620445 C-70.94848556 129.99648323 -68.49108844 129.97121509 -66 130 C-65.82526657 129.44933365 -65.65053314 128.8986673 -65.47050476 128.33131409 C-63.71129891 122.90643261 -61.68510993 117.68497318 -59.39453125 112.46484375 C-59.04212875 111.65279984 -58.68972626 110.84075592 -58.3266449 110.00410461 C-57.56065387 108.23994599 -56.7929824 106.47651624 -56.02380371 104.71374512 C-53.90524058 99.85810859 -51.79928437 94.99700083 -49.69140625 90.13671875 C-49.24054657 89.09806671 -48.78968689 88.05941467 -48.32516479 86.98928833 C-44.74585465 78.73780538 -41.19333794 70.47500563 -37.65234375 62.20703125 C-37.38584833 61.58480619 -37.11935291 60.96258114 -36.84478188 60.32150078 C-34.46265507 54.75890647 -32.08227959 49.19556328 -29.70230103 43.63204956 C-29.20217499 42.46304108 -28.70204895 41.29403259 -28.18676758 40.08959961 C-27.45451714 38.37775734 -27.45451714 38.37775734 -26.70747375 36.6313324 C-25.30940528 33.3678213 -23.90588306 30.10669596 -22.50195312 26.84570312 C-20.94526651 23.22557685 -19.41525918 19.59704081 -17.91992188 15.95117188 C-17.60891541 15.20575134 -17.29790894 14.46033081 -16.97747803 13.69232178 C-16.18379727 11.78794553 -15.40322364 9.87812028 -14.62402344 7.96777344 C-11.30222928 1.89745928 -6.78508446 -0.65241197 0 0 Z " fill="#FFC850" transform="translate(259,15)"/>
<path d="M0 0 C0.6875 2.3125 0.6875 2.3125 1 5 C-1.19770007 7.81827614 -4.01644311 9.24451941 -7.13671875 10.8984375 C-8.17691162 11.45378174 -9.21710449 12.00912598 -10.28881836 12.58129883 C-11.4103833 13.17322021 -12.53194824 13.7651416 -13.6875 14.375 C-15.45544718 15.31578423 -17.22338859 16.25657965 -18.99085999 17.19825745 C-20.20107096 17.842826 -21.411636 18.48673021 -22.62254333 19.12998962 C-26.56087611 21.2240596 -30.48098913 23.34872808 -34.390625 25.49609375 C-43.68440011 30.59912662 -52.99178444 35.61946563 -62.5625 40.1875 C-63.31781006 40.55012939 -64.07312012 40.91275879 -64.85131836 41.28637695 C-72.30063027 44.76981951 -78.82475262 47.02889351 -87 45 C-91.28370545 42.89855959 -94.10098417 40.42664858 -96.3046875 36.12109375 C-97.92806912 31.1688678 -97.92806912 25.8311322 -96.3046875 20.87890625 C-93.83200599 16.04782683 -90.10197361 13.02495801 -84.95996094 11.32592773 C-82.38080217 10.6910283 -79.79866083 10.17496387 -77.1875 9.6875 C-76.16156738 9.48801758 -75.13563477 9.28853516 -74.07861328 9.08300781 C-54.62584743 5.47007965 -34.94192794 3.00181428 -15.3427124 0.32849121 C-13.24441602 0.0342716 -11.15038244 -0.28998339 -9.05712891 -0.61816406 C-5.7943227 -1.02568913 -3.19799572 -0.70199906 0 0 Z " fill="#FFF082" transform="translate(97,283)"/>
<path d="M0 0 C1.25132973 0.15210434 1.25132973 0.15210434 2.52793884 0.30728149 C5.29374876 0.65095835 8.05486542 1.0220653 10.81640625 1.3984375 C11.7610675 1.52408081 12.70572876 1.64972412 13.67901611 1.7791748 C19.71506738 2.58540275 25.74324405 3.43924186 31.76879883 4.3203125 C34.87801546 4.77330772 37.98870483 5.2150147 41.09960938 5.65625 C50.39606368 6.9934043 59.67373729 8.41843933 68.875 10.3125 C69.58278091 10.44731781 70.29056183 10.58213562 71.01979065 10.72103882 C77.24204063 12.08315477 81.98520195 14.91745103 85.75390625 20.0234375 C87.64497193 26.03035203 88.15088823 32.59033233 85.19140625 38.3359375 C81.65890356 42.89100676 78.31370345 45.3629923 72.62890625 46.3984375 C63.04460586 46.95121623 53.39602044 40.97022867 45.00390625 36.8984375 C43.92149658 36.37580322 42.83908691 35.85316895 41.72387695 35.31469727 C31.81091111 30.48085121 22.1413419 25.25986757 12.515625 19.88183594 C9.70858635 18.33918336 6.87704801 16.85236298 4.03515625 15.375 C3.10614502 14.88523682 2.17713379 14.39547363 1.2199707 13.89086914 C-0.54799204 12.96008642 -2.32265857 12.04189196 -4.10473633 11.13842773 C-9.87027156 8.06785285 -9.87027156 8.06785285 -11.4140625 4.76953125 C-11.18359375 2.3984375 -11.18359375 2.3984375 -10.18066406 0.71264648 C-6.95033703 -1.41312985 -3.65470492 -0.49880916 0 0 Z " fill="#FFF082" transform="translate(425.18359375,282.6015625)"/>
<path d="M0 0 C4.10563142 5.21526154 4.46241576 9.48729935 4.53125 16.03515625 C3.44611805 22.09115002 -1.16128224 26.51785322 -5.265625 30.8828125 C-5.78167297 31.43639435 -6.29772095 31.9899762 -6.82940674 32.56033325 C-12.98717757 39.120202 -19.33904631 45.48937121 -25.71044922 51.84082031 C-27.76517508 53.89013511 -29.81443103 55.94481263 -31.86328125 58 C-33.19499165 59.33105025 -34.52701188 60.66179061 -35.859375 61.9921875 C-36.45852722 62.59336395 -37.05767944 63.19454041 -37.67498779 63.81393433 C-41.95535032 68.0710864 -46.42303008 72.06516413 -51 76 C-51.8353125 76.73089844 -52.670625 77.46179688 -53.53125 78.21484375 C-55.35416667 79.80989583 -57.17708333 81.40494792 -59 83 C-60.65 82.34 -62.3 81.68 -64 81 C-63.59161866 73.86353605 -60.54186245 68.06732347 -57.5 61.6875 C-56.92667204 60.4715527 -56.35359876 59.25548529 -55.78076172 58.03930664 C-51.00772653 47.95123343 -46.08358549 37.93538641 -41.125 27.9375 C-40.77123291 27.2202475 -40.41746582 26.502995 -40.05297852 25.76400757 C-27.2562165 -0.12788464 -27.2562165 -0.12788464 -19.04296875 -3.8984375 C-12.16802743 -5.6642119 -5.62646822 -4.53243273 0 0 Z " fill="#FFF082" transform="translate(419,15)"/>
<path d="M0 0 C2.54513643 2.66653768 4.17903298 5.70970417 5.88598633 8.95507812 C6.29864746 9.71949219 6.71130859 10.48390625 7.13647461 11.27148438 C16.39157569 28.60760702 25.03970765 46.29085563 33.38598633 64.08007812 C33.90016113 65.16160156 34.41433594 66.243125 34.9440918 67.35742188 C35.40831543 68.3603125 35.87253906 69.36320312 36.35083008 70.39648438 C36.75809326 71.26861572 37.16535645 72.14074707 37.58496094 73.03930664 C38.50839175 75.68950347 38.61599685 77.73228675 38.44848633 80.51757812 C36.79848633 81.17757812 35.14848633 81.83757812 33.44848633 82.51757812 C20.06575318 70.9106391 7.40265629 58.58339642 -5.15203857 46.09329224 C-6.49014674 44.7626272 -7.82984237 43.4335564 -9.17120361 42.10617065 C-29.64966698 21.82135781 -29.64966698 21.82135781 -29.86401367 12.83007812 C-29.79480381 7.05105479 -29.20506269 4.01425384 -25.55151367 -0.48242188 C-17.2975498 -6.85870676 -7.89111427 -6.95885706 0 0 Z " fill="#FFF082" transform="translate(118.551513671875,15.482421875)"/>
<path d="M0 0 C0.763125 0.226875 1.52625 0.45375 2.3125 0.6875 C5.21941898 12.16775463 7.22265786 23.8124084 9.27416992 35.46899414 C9.87076581 38.85099707 10.47707377 42.231163 11.08398438 45.61132812 C12.80618519 55.29188432 14.48652141 64.97265868 15.65234375 74.73828125 C15.73915909 75.42214401 15.82597443 76.10600677 15.91542053 76.81059265 C16.61029846 83.22350791 16.57600931 89.33475853 13.5 95.0625 C9.71337718 99.60644739 6.53979361 101.39304293 0.75390625 102.52734375 C-4.85224921 102.89510755 -9.22606831 100.83122915 -13.5625 97.4375 C-19.78245049 89.38815231 -18.75809675 82.35326057 -17.6875 72.6875 C-16.77694021 65.74432519 -15.60145657 58.84176155 -14.4375 51.9375 C-14.12058499 50.03388466 -13.80385484 48.13023854 -13.48730469 46.2265625 C-12.70895895 41.56483493 -11.9189976 36.90517252 -11.12353516 32.24633789 C-10.71856722 29.86981555 -10.31756763 27.49266439 -9.91796875 25.11523438 C-9.27543195 21.30283467 -8.61011237 17.49471976 -7.9375 13.6875 C-7.75155273 12.59211914 -7.56560547 11.49673828 -7.37402344 10.36816406 C-7.19387695 9.38041992 -7.01373047 8.39267578 -6.828125 7.375 C-6.67891602 6.53324219 -6.52970703 5.69148438 -6.37597656 4.82421875 C-5.17365914 1.0927712 -4.04881662 -0.47079263 0 0 Z " fill="#FFF082" transform="translate(257.6875,399.3125)"/>
</svg>
